<?xml version="1.0" encoding="utf-8"?>
<!-- Designed by Vexels.com - 2019 All Rights Reserved - https://vexels.com/terms-and-conditions/  -->
<svg version="1.1" id="Layer_1" xmlns="http://www.w3.org/2000/svg" xmlns:xlink="http://www.w3.org/1999/xlink" x="0px" y="0px"
	 viewBox="0 0 1200 1200" enable-background="new 0 0 1200 1200" xml:space="preserve">
<g>
	<path fill="#F5E9D8" d="M1147.916,229.746c1.354,4.328,2.084,8.925,2.084,13.684v153.852H50v687.814
		c0,25.381,20.767,46.148,46.148,46.148h1007.704c25.381,0,46.148-20.767,46.148-46.148V243.43
		C1150,238.67,1149.27,234.074,1147.916,229.746z"/>
	<path fill="#BE1733" d="M1150,243.43c0-24.482-21.605-46.148-46.147-46.148h-66.797v99.217c0,8.331-6.753,15.084-15.083,15.084
		h-33.735c-8.33,0-15.084-6.753-15.084-15.084v-99.217H222.308v99.217c0,8.331-6.753,15.084-15.084,15.084H173.49
		c-8.33,0-15.083-6.753-15.083-15.084v-99.217c0,0-62.249,0-62.258,0c-16.153,0-31.419,8.876-39.651,22.711
		C52.4,226.879,50,234.878,50,243.43c0,0,0,153.852,0,153.852h1100C1150,397.282,1150,243.493,1150,243.43z"/>
	<g>
		<path fill="#4F2F2E" d="M173.49,311.582h33.735c8.33,0,15.084-6.753,15.084-15.084v-99.217V83.839
			c0-8.33-6.753-15.084-15.084-15.084H173.49c-8.33,0-15.083,6.753-15.083,15.084v113.443v99.217
			C158.406,304.829,165.159,311.582,173.49,311.582z"/>
		<path fill="#4F2F2E" d="M988.237,311.582h33.735c8.33,0,15.083-6.753,15.083-15.084v-99.217V83.839
			c0-8.33-6.753-15.084-15.083-15.084h-33.735c-8.33,0-15.084,6.753-15.084,15.084v113.443v99.217
			C973.153,304.829,979.907,311.582,988.237,311.582z"/>
		<g>
			<path fill="#4F2F2E" d="M321.172,577.727h168.495v416.177h-89.308v-336.99h-79.187V577.727z"/>
			<path fill="#4F2F2E" d="M731.392,814.097V741.46h89.315v72.637h47.03v80.379h-47.03v99.429h-89.315v-99.429H564.088v-70.854
				l148.253-245.895h101.216l-141.104,236.37H731.392z"/>
		</g>
	</g>
</g>
</svg>
